Coordinates
version=1
nRows=8
nColumns=36
inDegrees=yes

Units are S.I. units (second, meters, Newtons, ...)
If the header above contains a line with 'inDegrees', this indicates whether rotational values are in degrees (yes) or radians (no).

endheader
time	pelvis_tilt	pelvis_list	pelvis_rotation	pelvis_tx	pelvis_ty	pelvis_tz	hip_flexion_r	hip_adduction_r	hip_rotation_r	knee_angle_r	knee_angle_r_beta	ankle_angle_r	subtalar_angle_r	mtp_angle_r	hip_flexion_l	hip_adduction_l	hip_rotation_l	knee_angle_l	knee_angle_l_beta	ankle_angle_l	subtalar_angle_l	mtp_angle_l	lumbar_extension	lumbar_bending	lumbar_rotation	arm_flex_r	arm_add_r	arm_rot_r	elbow_flex_r	pro_sup_r	arm_flex_l	arm_add_l	arm_rot_l	elbow_flex_l	pro_sup_l
      4.25000000	    -14.31436897	      0.42766770	      4.03919942	      0.79185478	      0.88310170	     -0.00504865	     51.55511075	    -12.00304465	      0.53573424	     53.54458243	      0.93452926	     19.31940341	    -13.43452860	     -7.49999987	     49.60775019	    -14.31048429	    -18.18470171	     57.16440242	      0.99770704	     23.63291139	      2.92304658	     -7.49999987	    -39.90336544	     -7.96071903	      5.25769609	     67.12642369	     -6.43648239	     30.32751638	    121.18199641	    109.17109734	     53.12870397	     -7.79844187	     15.50365067	    129.35650608	    103.47798630
      4.26666670	    -14.09884676	      0.41979708	      3.97094926	      0.79135115	      0.89424277	     -0.00584289	     50.03894425	    -11.93110704	      0.00622210	     51.54950022	      0.89970851	     18.70973534	    -12.89841646	     -7.49999987	     48.69387105	    -13.66758035	    -17.56485814	     55.81554815	      0.97416509	     22.21681638	      1.14687092	     -7.49999987	    -39.00591076	     -8.19057258	      5.40038659	     63.73576675	     -6.99256061	     28.82967130	    120.76682176	    108.95556300	     50.55588827	     -8.32074442	     15.56122109	    128.36764242	    103.34939886
      4.28333330	    -13.17173223	      0.32505713	      3.92254730	      0.79708973	      0.90898449	     -0.00331687	     47.21617587	    -11.60162530	     -0.62373178	     48.87611096	      0.85304906	     17.88722124	    -12.36425878	     -7.49999987	     46.47524172	    -13.20118458	    -17.10750763	     53.61349669	      0.93573204	     20.51212527	      0.04327621	     -7.49999987	    -38.67001533	     -8.35332731	      5.50506107	     59.93677843	     -7.39118311	     27.28273185	    119.87522158	    108.12532429	     48.30865986	     -8.88703563	     15.74244036	    126.34000523	    102.05392927
      4.30000000	    -12.44507537	      0.31195225	      3.67620510	      0.79692429	      0.90840987	     -0.00913211	     45.40883051	    -11.59708900	     -1.01613155	     47.40237179	      0.82732746	     17.20999137	    -12.26020395	     -7.49999987	     44.98553780	    -12.74820476	    -16.84828993	     52.44483558	      0.91533506	     19.87550330	     -1.32961806	     -7.49999987	    -37.84511836	     -8.21353550	      5.32485768	     57.04954228	     -7.51459927	     25.94647116	    117.65350090	    106.81016267	     45.56710205	     -9.61709139	     15.25128790	    124.85600708	    100.97153714
      4.31666670	    -11.39392406	      0.22583523	      3.88234886	      0.80163168	      0.91541815	     -0.00658582	     42.67225538	    -11.55987768	     -1.62931521	     45.28905354	      0.79044310	     16.61702286	    -12.10872968	     -7.49999987	     42.89390283	    -12.25656513	    -16.59931211	     50.58346834	      0.88284807	     18.83838723	     -2.24450433	     -7.49999987	    -36.98567408	     -8.10912773	      4.81837168	     53.44881002	     -7.66596028	     24.02507632	    114.72387576	    106.69550570	     42.62981513	    -10.10059475	     14.38364968	    122.75598808	    100.80790708
      4.33333330	    -11.20273209	      0.28398698	      4.19554823	      0.80115086	      0.91823822	     -0.00673841	     41.39598340	    -11.78659715	     -2.03090983	     43.83009718	      0.76497951	     16.14948956	    -12.41342563	     -7.49999987	     41.86158112	    -11.55280821	    -16.44655522	     49.07911232	      0.85659210	     18.45246470	     -3.09538064	     -7.49999987	    -35.46763951	     -7.99659655	      4.31915643	     50.37296428	     -7.74549635	     22.80368217	    110.88774385	    106.39592200	     39.83686921	    -10.60158996	     13.33634963	    120.03379761	    100.35525525
      4.35000000	    -11.20699334	      0.36822735	      4.45084284	      0.80136563	      0.92397978	     -0.00741262	     40.53616151	    -12.01997218	     -2.37594221	     42.41682285	      0.74031322	     15.30573352	    -12.46327508	     -7.49999987	     40.59012908	    -10.66917287	    -16.24906449	     46.62896955	      0.81382905	     17.50054234	     -3.82100234	     -7.49999987	    -33.54668823	     -7.70229758	      3.51498755	     47.41301948	     -7.49136399	     22.76147350	    105.29921513	    102.30387051	     35.85349330	    -11.08546021	     12.24418842	    117.10136131	     94.89770855
      4.36666670	    -11.21225586	      0.34386754	      4.97906062	      0.81051235	      0.93122642	     -0.00791750	     38.79964231	    -12.20085738	     -3.11789857	     40.12917580	      0.70038624	     14.62802980	    -12.36576955	     -7.49999987	     39.04404967	     -9.88444224	    -16.04477170	     44.04139430	      0.76866734	     16.62012638	     -3.97227876	     -7.49999987	    -31.68523997	     -7.48384608	      3.38236129	     42.68238404	     -8.14048716	     21.61825390	    101.92459483	    102.05632091	     30.90560849	    -10.65013496	     11.27227145	    113.95411515	     94.42104375
